<?xml version="1.0" standalone="no"?>
<!DOCTYPE svg PUBLIC "-//W3C//DTD SVG 20010904//EN"
 "http://www.w3.org/TR/2001/REC-SVG-20010904/DTD/svg10.dtd">
<svg version="1.0" xmlns="http://www.w3.org/2000/svg"
 width="512.000000pt" height="512.000000pt" viewBox="0 0 512.000000 512.000000"
 preserveAspectRatio="xMidYMid meet">
<metadata>
Created by potrace 1.14, written by Peter Selinger 2001-2017
</metadata>
<g transform="translate(0.000000,512.000000) scale(0.100000,-0.100000)"
fill="#000000" stroke="none">
<path d="M3008 4439 c-169 -4 -400 -15 -514 -23 -150 -12 -367 -16 -788 -17
-320 -1 -795 -4 -1056 -8 -519 -7 -504 -5 -561 -68 -15 -15 -32 -44 -38 -63
-40 -116 -64 -1436 -37 -2040 25 -563 25 -561 118 -608 42 -21 59 -23 192 -23
143 1 146 0 150 -22 3 -12 10 -155 16 -317 15 -370 21 -429 50 -471 47 -65 64
-67 480 -73 206 -3 494 -8 640 -11 899 -18 1965 -25 2377 -15 498 11 810 26
864 40 87 24 139 87 158 194 12 71 37 483 51 871 12 318 12 1157 1 1435 -12
295 -20 305 -269 320 -81 5 -157 10 -169 10 -23 0 -23 0 -24 178 0 97 -4 265
-8 372 -12 296 -20 305 -274 320 -163 10 -906 31 -997 28 -30 0 -193 -5 -362
-9z m1132 -120 c140 -6 266 -13 279 -15 26 -5 32 -1 -704 -497 l-370 -249
-170 -9 c-93 -5 -222 -13 -285 -19 -63 -5 -425 -10 -803 -10 l-689 0 -99 55
c-54 30 -145 80 -201 112 -240 132 -609 368 -791 505 l-86 65 322 7 c177 4
702 13 1167 22 465 8 1072 21 1350 28 683 18 784 18 1080 5z m370 -414 l0
-343 -479 1 c-264 1 -477 5 -473 8 4 3 95 66 202 139 247 169 484 343 625 458
60 50 113 88 117 86 5 -3 8 -160 8 -349z m-4180 160 c237 -184 511 -364 765
-501 l90 -49 -270 -5 -270 -5 -47 -27 c-81 -48 -88 -74 -104 -386 -8 -147 -17
-450 -20 -673 l-7 -406 -41 -22 c-23 -12 -90 -64 -151 -116 -60 -52 -113 -95
-116 -95 -27 -1 -53 882 -46 1575 6 590 22 856 50 838 6 -4 81 -61 167 -128z
m4329 -630 c232 -12 287 -17 300 -30 14 -14 16 -91 19 -673 3 -641 -6 -1095
-32 -1584 -14 -254 -20 -279 -70 -298 -31 -12 -317 -27 -766 -41 -372 -12
-1736 -7 -2893 10 -529 8 -550 9 -569 28 -16 17 -22 45 -33 164 -38 394 -45
1825 -11 2151 16 156 32 205 69 212 12 3 564 15 1227 27 663 11 1423 27 1690
34 666 17 745 17 1069 0z m-4189 -1645 l0 -90 -52 1 c-29 1 -90 4 -135 7 l-83
7 128 82 c70 44 130 82 135 82 4 1 7 -39 7 -89z"/>
<path d="M4434 3310 c-83 -5 -191 -16 -240 -24 -77 -13 -93 -20 -116 -46 -27
-30 -28 -33 -28 -153 0 -116 12 -329 26 -446 4 -42 13 -61 36 -84 l30 -30 156
6 c272 12 483 40 518 71 32 28 44 97 44 250 0 197 -35 399 -77 437 -22 21 -35
24 -111 25 -48 1 -155 -2 -238 -6z"/>
<path d="M2676 3203 c-4 -9 -10 -502 -13 -1094 l-6 -1077 21 -11 c15 -8 28 -9
41 -2 17 9 20 28 26 173 8 181 -10 2002 -20 2018 -10 16 -42 11 -49 -7z"/>
<path d="M3696 3009 c-22 -5 -83 -23 -135 -39 -102 -32 -191 -39 -227 -17 -91
52 -85 51 -108 28 -19 -20 -20 -23 -6 -49 9 -15 36 -38 60 -52 38 -21 58 -25
125 -25 69 0 100 7 221 48 78 26 160 47 181 47 22 0 61 -11 89 -25 42 -21 51
-23 63 -11 34 35 -97 108 -188 105 -20 -1 -54 -5 -75 -10z"/>
<path d="M3120 2881 c-17 -32 -12 -39 43 -75 122 -80 271 -87 437 -20 84 34
105 38 180 39 68 0 85 3 85 15 0 20 -44 40 -102 46 -34 4 -76 -2 -143 -20
-159 -44 -208 -49 -284 -32 -36 9 -88 27 -116 41 -59 30 -86 32 -100 6z"/>
<path d="M3415 2120 c-159 -3 -291 -7 -292 -8 -2 -1 -3 -8 -3 -16 0 -9 16 -16
48 -20 79 -9 1393 -17 1447 -9 40 7 51 12 53 29 3 18 -4 22 -35 27 -43 8 -782
5 -1218 -3z"/>
<path d="M3415 1810 c-159 -3 -291 -7 -292 -8 -2 -1 -3 -8 -3 -16 0 -9 16 -16
43 -19 70 -10 1398 -18 1452 -10 40 7 51 12 53 29 3 18 -4 22 -35 27 -43 8
-782 5 -1218 -3z"/>
<path d="M3415 1500 c-159 -3 -291 -7 -292 -8 -2 -1 -3 -8 -3 -16 0 -9 16 -16
43 -19 70 -10 1398 -18 1452 -10 40 7 51 12 53 29 3 18 -4 22 -35 27 -43 8
-782 5 -1218 -3z"/>
</g>
</svg>
